<svg width="31" height="30" viewBox="0 0 31 30" fill="none" xmlns="http://www.w3.org/2000/svg">
<path d="M15.4935 0C17.7313 0.0504134 19.9715 0.066827 22.2069 0.160619C24.0859 0.240343 25.8739 0.687029 27.4402 1.75626C29.1603 2.92984 30.1022 4.58645 30.5738 6.53029C30.8429 7.63939 30.9217 8.76724 30.9266 9.89861C30.9399 13.322 30.9423 16.7455 30.9266 20.1689C30.9205 21.5652 30.7993 22.9533 30.3423 24.2946C29.3191 27.2971 27.1589 29.0416 23.9901 29.6571C22.3294 29.9796 20.6395 29.962 18.9569 29.976C16.2342 29.9983 13.5103 30.01 10.7876 29.9889C9.2141 29.9772 7.6394 29.8893 6.12046 29.4414C3.03046 28.5316 1.15269 26.5221 0.426561 23.4926C0.0810721 22.0518 0.0240968 20.578 0.0143988 19.1055C-0.00378482 16.2671 -0.0062093 13.4287 0.0156111 10.5903C0.0277335 9.0791 0.104105 7.56552 0.536875 6.09885C1.46788 2.94625 3.63658 1.05751 6.92418 0.403307C7.98247 0.192274 9.08439 0.135999 10.1694 0.107861C11.9429 0.060965 13.7188 0.0949647 15.4935 0.0949647C15.4935 0.0633098 15.4935 0.0316549 15.4935 0ZM28.1445 14.6093C28.159 14.6093 28.1748 14.6093 28.1893 14.6093C28.1893 13.478 28.2269 12.3454 28.1796 11.2152C28.1251 9.90213 28.0924 8.57731 27.8802 7.28415C27.5311 5.16679 26.2376 3.78218 24.0726 3.19597C22.8288 2.85949 21.5547 2.75632 20.2734 2.73522C18.5702 2.70708 16.8682 2.69301 15.165 2.69419C13.4703 2.69419 11.7768 2.71412 10.0821 2.74108C9.03348 2.75749 7.98853 2.82432 6.96539 3.0846C5.16522 3.54066 3.91903 4.57238 3.32261 6.30402C2.8668 7.62649 2.75528 8.99703 2.74437 10.3723C2.72012 13.5424 2.71043 16.7126 2.74558 19.8816C2.75649 20.8418 2.85226 21.8161 3.05107 22.7552C3.54081 25.0648 4.98459 26.528 7.41756 26.9571C8.34614 27.1201 9.29654 27.2256 10.2384 27.2408C13.2933 27.2889 16.3494 27.3135 19.4054 27.2854C20.7316 27.2736 22.0711 27.201 23.3792 27.0005C25.7285 26.6405 27.2595 25.3052 27.7966 23.0377C28.0002 22.1795 28.1057 21.285 28.1287 20.4034C28.1772 18.4736 28.1433 16.5415 28.1433 14.6105L28.1445 14.6093Z" fill="#343741"/>
<path d="M23.4458 15.0185C23.4458 19.2685 19.9037 22.6954 15.5069 22.6989C11.1137 22.7024 7.56303 19.2767 7.55818 15.0279C7.55333 10.7638 11.1113 7.32166 15.5117 7.33339C19.9146 7.34394 23.4458 10.765 23.4446 15.0185H23.4458ZM15.5165 10.0276C12.6654 10.017 10.356 12.2352 10.3451 14.9951C10.3342 17.7584 12.6181 19.9895 15.4729 20.0036C18.3411 20.0188 20.6589 17.7924 20.6613 15.022C20.6637 12.2598 18.3738 10.037 15.5165 10.0264V10.0276Z" fill="#343741"/>
<path d="M25.6182 7.02974C25.6157 8.01807 24.7951 8.81531 23.7768 8.81765C22.75 8.82117 21.9087 8.00752 21.9123 7.01567C21.916 6.01912 22.7524 5.22658 23.7913 5.23479C24.8144 5.24299 25.6206 6.03436 25.6182 7.02974Z" fill="#343741"/>
</svg>
