<svg width="447" height="394" viewBox="0 0 447 394" fill="none" xmlns="http://www.w3.org/2000/svg">
<path d="M0 0H447V394H0V0Z" fill="#343741"/>
<path d="M135 289H313C313 295.627 307.627 301 301 301H135V289Z" fill="#343741"/>
<circle cx="142" cy="295" r="7" fill="#5B6071"/>
<circle cx="174.8" cy="295" r="7" fill="#FAE4D0"/>
<circle cx="207.6" cy="295" r="7" fill="#5B6071"/>
<circle cx="240.4" cy="295" r="7" fill="#5B6071"/>
<circle cx="273.2" cy="295" r="7" fill="#5B6071"/>
<circle cx="306" cy="295" r="7" fill="#5B6071"/>
<path d="M201.004 153.52C201.004 162.28 205.804 164.08 213.004 164.44V166H179.884V164.44C186.964 164.08 192.604 162.28 192.604 153.52V93.28H179.884V91.6C187.564 90.28 194.884 87.52 199.444 84.16H201.004V153.52ZM267.025 87.4C257.665 101.92 234.745 129.4 234.745 166H225.505C225.505 134.32 246.025 110.92 258.625 94.24H225.625C219.505 94.24 216.265 95.92 215.785 102.52H214.225V85.84H267.025V87.4Z" fill="#FAE4D0"/>
<path d="M162.761 222L160.105 215.36C159.481 213.792 159.145 212.944 158.777 211.84C158.857 213.04 158.889 214.288 158.889 215.664V222H157.449V210.8H159.817L161.913 216.096C162.729 218.208 163.113 219.344 163.401 220.304C163.705 219.344 164.089 218.208 164.905 216.096L167.001 210.8H169.369V222H167.929V215.664C167.929 214.288 167.961 213.04 168.041 211.84C167.673 212.944 167.337 213.792 166.713 215.36L164.057 222H162.761ZM175.532 210.8V222H174.076V210.8H175.532ZM180.234 222V210.8H182.266L186.474 216.656C187.146 217.6 187.818 218.464 188.458 219.6C188.41 218.64 188.394 217.52 188.394 216.544V210.8H189.834V222H188.538L183.322 214.656C182.602 213.648 182.09 212.912 181.626 212.096C181.658 213.008 181.674 213.92 181.674 214.864V222H180.234ZM199.972 222V210.8H203.748C207.3 210.8 209.524 212.928 209.524 216.4C209.524 219.872 207.3 222 203.748 222H199.972ZM203.604 212.096H201.428V220.704H203.604C206.356 220.704 207.988 219.296 207.988 216.4C207.988 213.504 206.356 212.096 203.604 212.096ZM222.73 222H221.034C220.842 221.712 220.762 221.28 220.762 220.736V218.976C220.762 217.808 220.298 217.248 219.162 217.248H215.274V222H213.818V210.8H218.538C220.89 210.8 222.442 211.856 222.442 213.744C222.442 215.184 221.578 216 220.234 216.304C221.53 216.448 222.25 217.264 222.25 218.832V220.016C222.25 220.976 222.378 221.584 222.73 222ZM218.538 212.096H215.274V215.952H218.538C220.01 215.952 220.826 215.328 220.826 214.016C220.826 212.704 220.01 212.096 218.538 212.096ZM228.416 210.8V222H226.96V210.8H228.416ZM236.495 222L232.063 210.8H233.615L235.599 215.984C236.303 217.84 236.799 219.216 237.135 220.288C237.487 219.216 237.983 217.84 238.687 215.984L240.671 210.8H242.223L237.791 222H236.495ZM245.87 222V210.8H253.326V212.096H247.326V215.664H252.686V216.96H247.326V220.704H253.486V222H245.87ZM261.678 210.8H270.942V212.096H267.038V222H265.566V212.096H261.678V210.8ZM279.102 222.16C276.11 222.16 273.694 220.32 273.694 216.4C273.694 212.48 276.11 210.64 279.102 210.64C282.11 210.64 284.526 212.48 284.526 216.4C284.526 220.32 282.11 222.16 279.102 222.16ZM279.102 220.864C281.406 220.864 282.99 219.392 282.99 216.4C282.99 213.408 281.406 211.936 279.102 211.936C276.814 211.936 275.23 213.408 275.23 216.4C275.23 219.392 276.814 220.864 279.102 220.864ZM134.846 242V230.8H139.438C141.902 230.8 143.614 232.032 143.614 234.528C143.614 237.024 141.902 238.256 139.438 238.256H136.302V242H134.846ZM139.294 232.096H136.302V236.96H139.294C141.022 236.96 142.078 236.288 142.078 234.528C142.078 232.768 141.022 232.096 139.294 232.096ZM147.738 242V230.8H155.194V232.096H149.194V235.664H154.554V236.96H149.194V240.704H155.354V242H147.738ZM167.315 242L166.227 239.152H161.059L159.971 242H158.419L162.851 230.8H164.435L168.867 242H167.315ZM161.955 236.816L161.555 237.856H165.747L165.347 236.816C164.595 234.848 164.067 233.408 163.651 232.016C163.235 233.408 162.691 234.848 161.955 236.816ZM181.42 242H179.724C179.532 241.712 179.452 241.28 179.452 240.736V238.976C179.452 237.808 178.988 237.248 177.852 237.248H173.964V242H172.508V230.8H177.228C179.58 230.8 181.132 231.856 181.132 233.744C181.132 235.184 180.268 236 178.924 236.304C180.22 236.448 180.94 237.264 180.94 238.832V240.016C180.94 240.976 181.068 241.584 181.42 242ZM177.228 232.096H173.964V235.952H177.228C178.7 235.952 179.516 235.328 179.516 234.016C179.516 232.704 178.7 232.096 177.228 232.096ZM185.522 233.792C185.522 231.792 187.122 230.64 189.426 230.64C192.034 230.64 193.634 232.016 193.682 234H192.146C192.05 232.72 191.042 231.904 189.426 231.904C187.97 231.904 186.994 232.624 186.994 233.728C186.994 235.136 188.434 235.376 189.986 235.664C191.858 236.016 193.89 236.416 193.89 238.848C193.89 240.992 192.114 242.16 189.746 242.16C187.01 242.16 185.186 240.72 185.154 238.592H186.674C186.77 239.984 187.922 240.896 189.746 240.896C191.346 240.896 192.418 240.112 192.418 238.912C192.418 237.488 190.946 237.248 189.394 236.96C187.538 236.608 185.522 236.208 185.522 233.792ZM203.097 242.16C200.105 242.16 197.689 240.32 197.689 236.4C197.689 232.48 200.105 230.64 203.097 230.64C206.105 230.64 208.521 232.48 208.521 236.4C208.521 240.32 206.105 242.16 203.097 242.16ZM203.097 240.864C205.401 240.864 206.985 239.392 206.985 236.4C206.985 233.408 205.401 231.936 203.097 231.936C200.809 231.936 199.225 233.408 199.225 236.4C199.225 239.392 200.809 240.864 203.097 240.864ZM212.81 242V230.8H214.842L219.05 236.656C219.722 237.6 220.394 238.464 221.034 239.6C220.986 238.64 220.97 237.52 220.97 236.544V230.8H222.41V242H221.114L215.898 234.656C215.178 233.648 214.666 232.912 214.202 232.096C214.234 233.008 214.25 233.92 214.25 234.864V242H212.81ZM240.076 242L238.988 239.152H233.82L232.732 242H231.18L235.612 230.8H237.196L241.628 242H240.076ZM234.716 236.816L234.316 237.856H238.508L238.108 236.816C237.356 234.848 236.828 233.408 236.412 232.016C235.996 233.408 235.452 234.848 234.716 236.816ZM246.725 230.8V242H245.269V230.8H246.725ZM260.339 242H258.643C258.451 241.712 258.371 241.28 258.371 240.736V238.976C258.371 237.808 257.907 237.248 256.771 237.248H252.883V242H251.427V230.8H256.147C258.499 230.8 260.051 231.856 260.051 233.744C260.051 235.184 259.187 236 257.843 236.304C259.139 236.448 259.859 237.264 259.859 238.832V240.016C259.859 240.976 259.987 241.584 260.339 242ZM256.147 232.096H252.883V235.952H256.147C257.619 235.952 258.435 235.328 258.435 234.016C258.435 232.704 257.619 232.096 256.147 232.096ZM264.57 242V230.8H269.162C271.626 230.8 273.338 232.032 273.338 234.528C273.338 237.024 271.626 238.256 269.162 238.256H266.026V242H264.57ZM269.018 232.096H266.026V236.96H269.018C270.746 236.96 271.802 236.288 271.802 234.528C271.802 232.768 270.746 232.096 269.018 232.096ZM282.454 242.16C279.462 242.16 277.046 240.32 277.046 236.4C277.046 232.48 279.462 230.64 282.454 230.64C285.462 230.64 287.878 232.48 287.878 236.4C287.878 240.32 285.462 242.16 282.454 242.16ZM282.454 240.864C284.758 240.864 286.342 239.392 286.342 236.4C286.342 233.408 284.758 231.936 282.454 231.936C280.166 231.936 278.582 233.408 278.582 236.4C278.582 239.392 280.166 240.864 282.454 240.864ZM301.079 242H299.383C299.191 241.712 299.111 241.28 299.111 240.736V238.976C299.111 237.808 298.647 237.248 297.511 237.248H293.623V242H292.167V230.8H296.887C299.239 230.8 300.791 231.856 300.791 233.744C300.791 235.184 299.927 236 298.583 236.304C299.879 236.448 300.599 237.264 300.599 238.832V240.016C300.599 240.976 300.727 241.584 301.079 242ZM296.887 232.096H293.623V235.952H296.887C298.359 235.952 299.175 235.328 299.175 234.016C299.175 232.704 298.359 232.096 296.887 232.096ZM303.941 230.8H313.205V232.096H309.301V242H307.829V232.096H303.941V230.8Z" fill="#FAE4D0"/>
</svg>
