<svg width="167" height="56" viewBox="0 0 167 56" fill="none" xmlns="http://www.w3.org/2000/svg">
<path d="M8.92215 0V1.59121H5.39157V10.7039H3.53719V1.59121H0V0H8.92215Z" fill="#343741"/>
<path d="M12.7099 4.46609H18.3984V0H20.2528V10.7039H18.3984V6.08405H12.7099V10.7039H10.8555V0H12.7099V4.46609Z" fill="#343741"/>
<path d="M23.0378 0H30.3894V1.59121H24.879V4.47947H29.8482V6.07068H24.879V9.1127H30.5082V10.7039H23.0378V0Z" fill="#343741"/>
<path d="M65.0746 0C65.0746 0 30.9434 41.3181 30.2241 42.1872C29.0494 43.6046 26.0467 46.6266 22.4502 46.9675C18.9724 47.3018 15.2504 43.8854 15.2504 43.8854L8.80957 51.6877C8.80957 51.6877 13.2574 56.3543 17.2434 55.9733C21.2293 55.5922 23.5852 52.6504 25.9412 49.7622L37.2126 36.1433C44.6368 36.1433 50.6487 42.2407 50.6487 49.7555V54.8367H66.5528L66.5858 0H65.0746ZM50.6553 34.6055H38.4863L50.6553 19.8701V34.6055Z" fill="#343741"/>
</svg>
