<svg width="561" height="186" viewBox="0 0 561 186" fill="none" xmlns="http://www.w3.org/2000/svg">
<path d="M29.972 0.0219727V5.29811H18.1118V35.514H11.8824V5.29811H0V0.0219727H29.972Z" fill="#343741"/>
<path d="M42.6972 14.8308H61.8065V0.0221558H68.0359V35.5142H61.8065V20.1956H42.6972V35.5142H36.4678V0.0221558H42.6972V14.8308Z" fill="#343741"/>
<path d="M77.3907 0.0221558H102.087V5.2983H83.5758V14.8752H100.269V20.1513H83.5758V30.238H102.486V35.5142H77.3907V0.0221558Z" fill="#343741"/>
<path d="M218.605 0.0214233C218.605 0.0214233 103.948 137.024 101.532 139.906C97.586 144.605 87.4993 154.626 75.4174 155.756C63.7345 156.865 51.2313 145.537 51.2313 145.537L29.5947 171.407C29.5947 171.407 44.5364 186.881 57.9263 185.617C71.3161 184.354 79.2304 174.6 87.1446 165.023L125.009 119.865C149.948 119.865 170.144 140.083 170.144 165.001V181.849H223.571L223.681 0.0214233H218.605ZM170.166 114.766H129.287L170.166 65.9067V114.766Z" fill="#343741"/>
<path d="M293.978 181.872V141.503C293.978 116.452 325.524 105.368 341.198 124.92V124.987L386.821 181.872H392.341V180.586L392.252 0H341.043L341.176 116.74L247.646 0.0221687H242.791L242.88 181.872H294.001H293.978Z" fill="#343741"/>
<path d="M411.517 181.872H462.638V141.503C462.638 116.452 494.184 105.368 509.857 124.92V124.987L555.48 181.872H561V180.586L560.911 0H509.702L509.835 116.74L416.305 0.0221687H411.45V2.12819L411.539 181.894L411.517 181.872Z" fill="#343741"/>
</svg>
