<svg width="31" height="30" viewBox="0 0 31 30" fill="none" xmlns="http://www.w3.org/2000/svg">
<path d="M0.0637374 29.9953C4.12101 25.5252 8.12632 21.1102 12.1477 16.68C8.13003 11.1355 4.1173 5.59914 0.083535 0.0346674C0.175099 0.0229379 0.239441 0.00768956 0.303784 0.00768956C3.21775 0.00651661 6.13047 0.0100355 9.04444 0.000651864C9.26221 0.000651864 9.34882 0.105044 9.44905 0.244625C11.9819 3.74236 14.5172 7.23892 17.0526 10.7355C17.1157 10.8235 17.1825 10.9079 17.2939 11.0545C17.3582 10.9654 17.4015 10.8903 17.4597 10.827C20.6409 7.31985 23.8258 3.81508 27.0009 0.303273C27.2001 0.0827583 27.3993 -0.00873173 27.7049 0.000651864C28.4449 0.0217649 29.1848 0.00768956 30.0039 0.00768956C26.1409 4.26549 22.32 8.47521 18.4805 12.706C22.6479 18.4547 26.8103 24.1998 31 29.9789C30.8726 29.9859 30.7859 29.9953 30.6993 29.9953C27.8274 29.9953 24.9543 29.9941 22.0824 30C21.8745 30 21.7533 29.9402 21.6345 29.776C18.9531 26.0671 16.2656 22.3618 13.5781 18.6552C13.51 18.5614 13.4383 18.4687 13.3529 18.3561C12.5647 19.2241 11.7988 20.0651 11.0341 20.9085C8.34162 23.8749 5.65162 26.8424 2.95295 29.8029C2.86139 29.9026 2.68569 29.9836 2.54586 29.9871C1.7453 30.0047 0.943494 29.9953 0.0625 29.9953H0.0637374ZM3.79064 1.95009C3.86736 2.06739 3.9119 2.14128 3.96263 2.21166C10.283 10.7824 16.6034 19.3531 22.9213 27.9274C23.0339 28.0811 23.1515 28.1409 23.3495 28.1385C24.5546 28.1291 25.7586 28.135 26.9638 28.1327C27.0479 28.1327 27.1333 28.1186 27.2508 28.1092C27.1642 27.9872 27.1036 27.8981 27.0392 27.8113C22.4462 21.5829 17.8519 15.3546 13.2589 9.1262C11.555 6.81549 9.85243 4.5036 8.14241 2.19759C8.06445 2.09202 7.91968 1.96417 7.80337 1.96182C6.48559 1.9454 5.16781 1.95127 3.79064 1.95127V1.95009Z" fill="#343741"/>
</svg>
